HIERARCHY
ROOT Hips
{
	OFFSET	0.000000	0.000000	0.000000
	CHANNELS 6 Xposition Yposition Zposition Zrotation Xrotation Yrotation
	JOINT LeftUpLeg
	{
		OFFSET	10.400868	-0.616521	2.124034
		CHANNELS 3 Zrotation Xrotation Yrotation
		JOINT LeftLeg
		{
			OFFSET	0.352537	-41.535095	-2.050072
			CHANNELS 3 Zrotation Xrotation Yrotation
			JOINT LeftFoot
			{
				OFFSET	-0.352537	-41.565321	-3.489960
				CHANNELS 3 Zrotation Xrotation Yrotation
				JOINT LeftFootHeel
				{
					OFFSET	0.523297	-9.012733	-4.729048
					CHANNELS 3 Zrotation Xrotation Yrotation
					End Site
					{
						OFFSET	-1.845620	-0.000002	17.812028
					}
				}
			}
		}
	}
	JOINT RightUpLeg
	{
		OFFSET	-10.400868	-0.616521	2.124034
		CHANNELS 3 Zrotation Xrotation Yrotation
		JOINT RightLeg
		{
			OFFSET	-0.352537	-41.535095	-2.050072
			CHANNELS 3 Zrotation Xrotation Yrotation
			JOINT RightFoot
			{
				OFFSET	0.352537	-41.565321	-3.489960
				CHANNELS 3 Zrotation Xrotation Yrotation
				JOINT RightFootHeel
				{
					OFFSET	-0.523297	-9.012733	-4.729048
					CHANNELS 3 Zrotation Xrotation Yrotation
					End Site
					{
						OFFSET	1.845620	-0.000002	17.812028
					}
				}
			}
		}
	}
	JOINT Spine
	{
		OFFSET	0.000000	14.066495	0.622008
		CHANNELS 3 Zrotation Xrotation Yrotation
		JOINT Spine1
		{
			OFFSET	0.000000	11.326443	0.000000
			CHANNELS 3 Zrotation Xrotation Yrotation
			JOINT LeftShoulder
			{
				OFFSET	5.573420	28.820108	1.551455
				CHANNELS 3 Zrotation Xrotation Yrotation
				JOINT LeftArm
				{
					OFFSET	11.077346	-0.652064	-0.274831
					CHANNELS 3 Zrotation Xrotation Yrotation
					JOINT LeftForeArm
					{
						OFFSET	3.317875	-35.016692	0.191745
						CHANNELS 3 Zrotation Xrotation Yrotation
						JOINT LeftHand
						{
							OFFSET	0.521886	-23.143868	7.546822
							CHANNELS 3 Zrotation Xrotation Yrotation
							End Site
							{
								OFFSET	-0.335938	-11.014202	2.865907
							}
						}
					}
				}
			}
			JOINT RightShoulder
			{
				OFFSET	-5.573420	28.820108	1.551455
				CHANNELS 3 Zrotation Xrotation Yrotation
				JOINT RightArm
				{
					OFFSET	-11.077346	-0.652064	-0.274831
					CHANNELS 3 Zrotation Xrotation Yrotation
					JOINT RightForeArm
					{
						OFFSET	-3.317875	-35.016692	0.191745
						CHANNELS 3 Zrotation Xrotation Yrotation
						JOINT RightHand
						{
							OFFSET	-0.521884	-23.143868	7.546822
							CHANNELS 3 Zrotation Xrotation Yrotation
							End Site
							{
								OFFSET	0.335938	-11.014202	2.865907
							}
						}
					}
				}
			}
			JOINT Neck
			{
				OFFSET	0.000000	31.425642	0.514363
				CHANNELS 3 Zrotation Xrotation Yrotation
				JOINT Head
				{
					OFFSET	0.000000	11.901169	2.272744
					CHANNELS 3 Zrotation Xrotation Yrotation
					End Site
					{
						OFFSET	0.000000	13.820749	0.378790
					}
				}
			}
		}
	}
}
MOTION
Frames:     12
Frame Time: 0.016667
0.000000	87.770988	0.000000	8.032750	-6.838633	40.112671	9.555497	-4.780052	9.898672	-6.129142	41.643787	10.168378	-3.596164	-24.804861	8.121181	0.	0.	0.	-28.735901	-14.541619	-22.236454	15.161823	40.936096	-17.936647	3.872312	-7.304629	-7.295113	0.	0.	0.	0.000000	0.000001	-0.000002	2.672199	22.010679	-3.082992	5.364266	1.300860	5.589913	32.923447	-6.852704	47.816406	27.900871	-114.119263	40.771790	-10.692589	-22.699244	11.189852	-1.521250	0.604432	5.101061	-11.731025	-19.755302	-19.112350	2.631813	-37.394581	-10.315091	21.507299	-15.084531	-1.543232	-0.230444	4.192255	4.080016	2.089584	-7.594979	-47.753349	
-0.007168	87.772703	-0.014185	8.014133	-6.834912	40.066509	9.569169	-4.793850	9.915329	-6.157212	41.642803	10.200761	-3.587097	-24.802254	8.132835	0.	0.	0.	-28.719856	-14.570677	-22.221146	15.130452	40.894905	-17.924339	3.878100	-7.257602	-7.273871	0.	0.	0.	0.000000	0.000000	0.000001	2.675471	22.024530	-3.070371	5.345900	1.294417	5.610007	32.902714	-6.847237	47.837517	27.886374	-114.155327	40.764744	-10.686764	-22.695265	11.212946	-1.532443	0.594286	5.108542	-11.746460	-19.774246	-19.101439	2.633300	-37.402161	-10.327804	21.523495	-15.094418	-1.547201	-0.259341	4.188096	4.106132	2.113377	-7.614963	-47.743931	
-0.000986	87.770978	-0.028164	8.006651	-6.839108	40.028046	9.556039	-4.798765	9.922079	-6.151585	41.654327	10.191229	-3.572509	-24.813517	8.181354	0.	0.	0.	-28.718115	-14.580235	-22.206659	15.134692	40.856144	-17.939838	3.869948	-7.218114	-7.240553	0.	0.	0.	-0.000002	0.000000	-0.000001	2.676723	22.072493	-3.048685	5.316994	1.288291	5.597433	32.894127	-6.850757	47.887699	27.876396	-114.192192	40.776791	-10.652952	-22.683641	11.278839	-1.540758	0.566348	5.095209	-11.744839	-19.794136	-19.080507	2.619325	-37.418167	-10.342083	21.540043	-15.096532	-1.551654	-0.271652	4.176652	4.117726	2.117726	-7.651855	-47.737999	
0.002653	87.772141	-0.042729	7.991756	-6.829896	39.993721	9.545744	-4.815990	9.938372	-6.148531	41.656887	10.170813	-3.551738	-24.817772	8.229883	0.	0.	0.	-28.725550	-14.595110	-22.218531	15.141501	40.818180	-17.940847	3.854726	-7.182017	-7.209333	0.	0.	0.	-0.000001	0.000000	0.000001	2.675361	22.107367	-3.024036	5.294647	1.270800	5.585010	32.880325	-6.851000	47.901207	27.815784	-114.214020	40.724468	-10.659980	-22.686121	11.294162	-1.544627	0.547685	5.078228	-11.758380	-19.816954	-19.069679	2.616112	-37.438171	-10.355261	21.555759	-15.084485	-1.556704	-0.286263	4.162408	4.080995	2.137876	-7.682213	-47.688736	
0.014489	87.772141	-0.061340	7.983409	-6.824902	39.969704	9.515130	-4.832730	9.929351	-6.131888	41.666752	10.178496	-3.545034	-24.826464	8.261160	0.	0.	0.	-28.739475	-14.581697	-22.299879	15.097189	40.786129	-17.857531	3.844001	-7.148113	-7.173283	0.	0.	0.	0.000000	-0.000001	-0.000002	2.676936	22.158405	-3.012129	5.286448	1.218777	5.595799	32.874737	-6.850330	47.867653	27.781242	-114.211212	40.676968	-10.640464	-22.689541	11.321140	-1.548287	0.524876	5.064920	-11.780062	-19.839962	-19.064871	2.617988	-37.447426	-10.357760	21.554373	-15.085175	-1.527168	-0.290149	4.132484	4.062910	2.172057	-7.684875	-47.648983	
0.027274	87.773614	-0.069789	7.968972	-6.815167	39.958408	9.493732	-4.850241	9.927776	-6.108387	41.670906	10.162311	-3.538764	-24.834581	8.290398	0.	0.	0.	-28.745445	-14.585477	-22.349369	15.080515	40.756966	-17.825241	3.830516	-7.118679	-7.149749	0.	0.	0.	-0.000002	-0.000001	-0.000002	2.679475	22.157198	-3.004326	5.276631	1.218846	5.587694	32.881016	-6.855975	47.849098	27.828453	-114.211113	40.699444	-10.620511	-22.666424	11.325494	-1.550360	0.549176	5.048216	-11.804904	-19.862501	-19.065441	2.628707	-37.437454	-10.296902	21.533585	-15.127365	-1.533970	-0.292272	4.126357	4.064604	2.216439	-7.659924	-47.633606	
0.034519	87.772325	-0.082428	7.972109	-6.818690	39.921726	9.474037	-4.843263	9.942259	-6.097804	41.674496	10.163684	-3.533800	-24.840975	8.313417	0.	0.	0.	-28.741034	-14.593343	-22.333546	15.087825	40.725094	-17.817434	3.808151	-7.090831	-7.145463	0.	0.	0.	-0.000001	0.000000	-0.000001	2.669472	22.190472	-2.978186	5.273001	1.192972	5.601793	32.877621	-6.855079	47.808624	27.909088	-114.214622	40.749504	-10.591968	-22.632595	11.322949	-1.556541	0.563591	5.044730	-11.821409	-19.868431	-19.068974	2.655349	-37.462944	-10.276186	21.529329	-15.137658	-1.538795	-0.302680	4.142501	4.071617	2.235269	-7.688452	-47.616802	
0.036535	87.774079	-0.097391	7.968296	-6.831259	39.888470	9.473156	-4.835982	9.957360	-6.096170	41.675552	10.183967	-3.533800	-24.840975	8.313417	0.	0.	0.	-28.724751	-14.598778	-22.314024	15.074313	40.683647	-17.796812	3.800326	-7.045875	-7.147020	0.	0.	0.	-0.000001	0.000000	0.000000	2.675311	22.227154	-2.971042	5.257988	1.181464	5.617377	32.880466	-6.859442	47.768543	27.973721	-114.214813	40.776081	-10.552887	-22.607271	11.321123	-1.565968	0.578284	5.058034	-11.853357	-19.880251	-19.068937	2.669774	-37.463974	-10.289681	21.542589	-15.157515	-1.529791	-0.323655	4.151165	4.090837	2.256286	-7.703970	-47.580471	
0.034948	87.779069	-0.102958	7.950866	-6.862593	39.856071	9.506125	-4.816401	9.958241	-6.117257	41.670467	10.219271	-3.533800	-24.840975	8.313417	0.	0.	0.	-28.682833	-14.601978	-22.280109	15.057629	40.636620	-17.784821	3.800506	-6.983646	-7.150433	0.	0.	0.	0.000000	0.000000	0.000001	2.703734	22.295380	-2.951155	5.238086	1.155391	5.609749	32.887970	-6.866734	47.720886	27.897789	-114.196724	40.668842	-10.554136	-22.557316	11.317818	-1.572276	0.568692	5.056502	-11.887309	-19.901436	-19.083353	2.699937	-37.465317	-10.295364	21.533451	-15.165655	-1.476502	-0.348710	4.112782	4.094488	2.274525	-7.719089	-47.567383	
0.055560	87.787896	-0.109619	7.930590	-6.858568	39.815292	9.493726	-4.803644	9.954412	-6.127577	41.639336	10.271375	-3.533800	-24.840975	8.313417	0.	0.	0.	-28.663176	-14.634406	-22.253263	15.043711	40.598106	-17.796160	3.804339	-6.927210	-7.131532	0.	0.	0.	-0.000001	0.000000	0.000001	2.708325	22.339352	-2.922058	5.220170	1.121161	5.606435	32.893684	-6.873993	47.667469	27.888371	-114.184692	40.618763	-10.528999	-22.520468	11.315423	-1.579109	0.554873	5.054821	-11.896060	-19.941679	-19.085928	2.680439	-37.431553	-10.312408	21.538439	-15.195849	-1.405397	-0.368555	4.074532	4.099672	2.288859	-7.740093	-47.560753	
0.083491	87.801626	-0.121521	7.900379	-6.838253	39.786667	9.468387	-4.807787	9.954852	-6.123604	41.597725	10.289268	-3.517920	-24.836596	8.334291	0.	0.	0.	-28.653164	-14.675126	-22.254089	15.036371	40.581783	-17.823284	3.809931	-6.892921	-7.093709	0.	0.	0.	-0.000001	0.000001	-0.000001	2.712814	22.346348	-2.902429	5.204738	1.102274	5.600034	32.902702	-6.881853	47.648659	27.928003	-114.182877	40.630379	-10.499624	-22.504787	11.314457	-1.586426	0.558035	5.050615	-11.920194	-19.968254	-19.096186	2.677838	-37.397148	-10.344297	21.562857	-15.226523	-1.338719	-0.375856	4.073261	4.102798	2.290660	-7.779635	-47.555092	
0.108968	87.815152	-0.125789	7.882441	-6.825984	39.774906	9.449146	-4.795346	9.959771	-6.117029	41.551601	10.279065	-3.497499	-24.829370	8.357759	0.	0.	0.	-28.627649	-14.658612	-22.244715	15.010475	40.536472	-17.829021	3.826245	-6.882076	-7.068799	0.	0.	0.	0.000000	0.000000	0.000000	2.711924	22.357367	-2.896674	5.201137	1.084137	5.599375	32.908943	-6.886761	47.645592	28.011465	-114.190010	40.693634	-10.460847	-22.540260	11.350476	-1.585742	0.548191	5.051651	-11.915902	-19.966795	-19.096291	2.662865	-37.392483	-10.365017	21.579422	-15.245841	-1.316930	-0.398581	4.069683	4.101637	2.303512	-7.790831	-47.556652	
